<?xml version="1.0" standalone="no"?>
<!DOCTYPE svg PUBLIC "-//W3C//DTD SVG 20010904//EN"
 "http://www.w3.org/TR/2001/REC-SVG-20010904/DTD/svg10.dtd">
<svg version="1.0" xmlns="http://www.w3.org/2000/svg"
 width="360.000000pt" height="352.000000pt" viewBox="0 0 360.000000 352.000000"
 preserveAspectRatio="xMidYMid meet">

<g transform="translate(0.000000,352.000000) scale(0.100000,-0.100000)"
fill="#000000" stroke="none">
<path d="M1590 3499 c-612 -69 -1155 -461 -1421 -1024 -242 -513 -222 -1137
51 -1629 210 -377 539 -664 935 -815 89 -35 130 -38 163 -16 32 23 37 58 34
237 l-3 163 -162 0 c-185 0 -241 12 -320 68 -60 42 -98 94 -131 177 -35 85
-100 176 -156 217 -133 98 -134 147 -2 129 98 -13 185 -76 262 -190 110 -164
228 -214 412 -175 82 18 105 33 113 76 9 53 41 122 75 165 l29 36 -62 7 c-222
25 -451 131 -565 260 -154 175 -232 552 -167 806 22 85 66 176 116 240 l41 51
-17 75 c-24 100 -17 241 16 338 l24 70 60 -1 c75 -1 235 -62 355 -134 l83 -50
56 14 c127 32 212 41 391 41 180 0 264 -9 393 -41 l57 -15 55 36 c191 122 415
190 445 136 21 -39 50 -188 50 -256 0 -38 -7 -102 -16 -141 l-17 -71 41 -52
c113 -143 158 -332 133 -564 -20 -180 -74 -335 -157 -449 -104 -141 -321 -252
-566 -288 l-87 -13 30 -38 c77 -97 89 -170 89 -547 l0 -283 25 -24 c31 -32 65
-32 157 1 559 202 1001 709 1126 1294 179 831 -229 1659 -993 2021 -294 139
-644 195 -975 158z"/>
</g>
</svg>
